<svg width="48" height="42" viewBox="0 0 48 42" fill="none" xmlns="http://www.w3.org/2000/svg">
<path d="M46 21C46 16.9455 44.6804 12.982 42.2081 9.61082C39.7357 6.23961 36.2217 3.61207 32.1104 2.06048C27.999 0.508882 23.475 0.102914 19.1105 0.893911C14.7459 1.68491 10.7368 3.63734 7.59011 6.50432C4.44343 9.37129 2.30051 13.024 1.43234 17.0007C0.564174 20.9773 1.00975 25.0991 2.71272 28.845C4.41569 32.5909 7.29957 35.7926 10.9997 38.0451C14.6998 40.2977 19.0499 41.5 23.5 41.5C29.4637 41.4892 35.1798 39.3259 39.3968 35.4837C43.6138 31.6416 45.9881 26.4336 46 21ZM24.4 39.8395V25.1H30.7C30.9387 25.1 31.1676 25.0136 31.3364 24.8598C31.5052 24.7061 31.6 24.4975 31.6 24.28C31.6 24.0625 31.5052 23.854 31.3364 23.7002C31.1676 23.5464 30.9387 23.46 30.7 23.46H24.4V17.72C24.4059 16.6343 24.8819 15.5946 25.7246 14.8268C26.5672 14.0591 27.7084 13.6254 28.9 13.62H32.5C32.7387 13.62 32.9676 13.5336 33.1364 13.3798C33.3052 13.2261 33.4 13.0175 33.4 12.8C33.4 12.5825 33.3052 12.374 33.1364 12.2202C32.9676 12.0664 32.7387 11.98 32.5 11.98H28.9C27.231 11.9854 25.632 12.5919 24.4518 13.6672C23.2716 14.7425 22.6059 16.1993 22.6 17.72V23.46H16.3C16.0613 23.46 15.8324 23.5464 15.6636 23.7002C15.4948 23.854 15.4 24.0625 15.4 24.28C15.4 24.4975 15.4948 24.7061 15.6636 24.8598C15.8324 25.0136 16.0613 25.1 16.3 25.1H22.6V39.8395C17.1931 39.6251 12.0934 37.4899 8.39332 33.8913C4.69328 30.2928 2.68722 25.517 2.8049 20.5872C2.92258 15.6574 5.15464 10.9657 9.02291 7.5171C12.8912 4.0685 18.088 2.13734 23.5 2.13734C28.912 2.13734 34.1088 4.0685 37.9771 7.5171C41.8454 10.9657 44.0774 15.6574 44.1951 20.5872C44.3128 25.517 42.3067 30.2928 38.6067 33.8913C34.9067 37.4899 29.8069 39.6251 24.4 39.8395Z" fill="#755FC7"/>
</svg>
