<svg width="48" height="45" viewBox="0 0 48 45" fill="none" xmlns="http://www.w3.org/2000/svg">
<path d="M47.8047 7.06812C47.6101 6.57456 47.2804 6.1527 46.8574 5.85592C46.4344 5.55915 45.9371 5.40079 45.4284 5.40091H39.3902C38.3754 3.76059 36.99 2.40922 35.3574 1.4671C33.7249 0.524984 31.8958 0.0213483 30.033 0.00103125C28.5797 -0.0194593 27.1371 0.265592 25.7903 0.839402C24.4435 1.41321 23.2196 2.26418 22.1907 3.3422C21.1327 4.43182 20.2929 5.73262 19.7207 7.16807C19.1485 8.60352 18.8554 10.1446 18.8588 11.7008V11.8763C10.9672 9.27307 4.63548 2.67397 4.56691 2.59972C4.22191 2.23464 3.78477 1.98062 3.30694 1.86757C2.82911 1.75451 2.33046 1.78712 1.86969 1.96156C1.40891 2.136 1.00516 2.44501 0.705965 2.85222C0.406765 3.25944 0.224559 3.74792 0.180785 4.26018C-1.17127 20.0481 5.46257 28.5124 9.19302 31.9615C6.08824 35.287 1.71711 37.0532 1.67425 37.0712C1.31082 37.2132 0.982689 37.4398 0.714433 37.7338C0.446176 38.0279 0.244739 38.3819 0.125202 38.7693C0.00566479 39.1566 -0.0288767 39.5674 0.0241634 39.9708C0.0772034 40.3742 0.216451 40.7597 0.431482 41.0986C0.860024 41.7488 3.31128 45 11.145 45C26.6261 45 39.5788 32.5668 41.0573 16.5089L47.2454 10.0111C47.6054 9.63363 47.8507 9.15255 47.9503 8.62869C48.0498 8.10483 47.9992 7.56173 47.8047 7.06812ZM36.7547 13.3927C36.3115 13.8561 36.0454 14.4741 36.0069 15.1297C35.1734 28.8521 24.2541 39.6001 11.145 39.6001C10.2501 39.6056 7.38713 40.0946 6.5 39.9708C8.7477 38.4723 13.2277 35.791 15.0019 32.9988C15.196 32.6931 15.3286 32.3491 15.3917 31.9878C15.4548 31.6264 15.4469 31.2554 15.3687 30.8973C15.2905 30.5393 15.1435 30.2017 14.9367 29.9054C14.73 29.609 14.4678 29.3601 14.1663 29.1739C14.1405 29.1581 11.5243 27.4887 9.14588 23.6795C6.76748 19.8703 4.82404 14.3085 4.56691 9.18307C8.2438 12.0945 14.5734 16.8284 21.0015 17.9646C21.3703 18.0301 21.7483 18.0103 22.1091 17.9065C22.4699 17.8028 22.8048 17.6176 23.0904 17.364C23.376 17.1103 23.6055 16.7943 23.7628 16.438C23.9202 16.0816 24.0015 15.6935 24.0013 15.3007V11.7008C23.9995 10.8599 24.158 10.0271 24.4674 9.2516C24.7769 8.47606 25.2311 7.77343 25.8033 7.18512C26.3497 6.61116 26.9999 6.15766 27.7156 5.85126C28.4313 5.54487 29.198 5.39175 29.9709 5.40091C31.1393 5.41733 32.2793 5.78141 33.2586 6.45088C34.2379 7.12034 35.0163 8.06774 35.5034 9.18307C35.7038 9.6642 36.0336 10.0735 36.4522 10.3608C36.8709 10.6482 37.3602 10.8011 37.8603 10.8008L41.0573 10.0111L36.7547 13.3927Z" fill="#755FC7"/>
</svg>
