<svg width="48" height="45" viewBox="0 0 48 45" fill="none" xmlns="http://www.w3.org/2000/svg">
<path d="M24 13.1042C21.9604 13.1042 19.9666 13.6552 18.2707 14.6877C16.5748 15.7201 15.253 17.1875 14.4725 18.9044C13.692 20.6212 13.4877 22.5104 13.8857 24.333C14.2836 26.1556 15.2657 27.8298 16.708 29.1439C18.1502 30.4579 19.9877 31.3528 21.9881 31.7153C23.9886 32.0778 26.0621 31.8918 27.9464 31.1806C29.8308 30.4695 31.4414 29.2652 32.5745 27.72C33.7077 26.1749 34.3125 24.3583 34.3125 22.5C34.3125 20.0081 33.226 17.6182 31.292 15.8561C29.3581 14.0941 26.735 13.1042 24 13.1042ZM24 30.1875C22.3312 30.1875 20.6999 29.7366 19.3124 28.8919C17.9248 28.0472 16.8434 26.8466 16.2048 25.4419C15.5662 24.0372 15.3991 22.4915 15.7246 21.0002C16.0502 19.509 16.8538 18.1392 18.0338 17.0641C19.2138 15.989 20.7172 15.2568 22.3539 14.9602C23.9906 14.6636 25.6871 14.8158 27.2289 15.3977C28.7706 15.9795 30.0884 16.9649 31.0155 18.2291C31.9426 19.4933 32.4375 20.9796 32.4375 22.5C32.4375 24.5389 31.5486 26.4942 29.9662 27.9359C28.3839 29.3776 26.2378 30.1875 24 30.1875ZM34.3125 2H13.6875C10.4552 2 7.35524 3.1699 5.06964 5.25233C2.78404 7.33477 1.5 10.1592 1.5 13.1042V31.8958C1.5 33.3541 1.81524 34.798 2.42772 36.1452C3.0402 37.4924 3.93792 38.7165 5.06964 39.7477C7.35524 41.8301 10.4552 43 13.6875 43H34.3125C35.913 43 37.4978 42.7128 38.9765 42.1547C40.4551 41.5967 41.7986 40.7788 42.9304 39.7477C44.0621 38.7165 44.9598 37.4924 45.5723 36.1452C46.1848 34.798 46.5 33.3541 46.5 31.8958V13.1042C46.5 11.6459 46.1848 10.202 45.5723 8.85479C44.9598 7.50757 44.0621 6.28345 42.9304 5.25233C41.7986 4.22122 40.4551 3.40329 38.9765 2.84525C37.4978 2.28722 35.913 2 34.3125 2ZM44.625 31.8958C44.625 34.3878 43.5385 36.7776 41.6045 38.5397C39.6706 40.3018 37.0475 41.2917 34.3125 41.2917H13.6875C10.9525 41.2917 8.32943 40.3018 6.39546 38.5397C4.46149 36.7776 3.375 34.3878 3.375 31.8958V13.1042C3.375 10.6122 4.46149 8.22237 6.39546 6.46031C8.32943 4.69825 10.9525 3.70833 13.6875 3.70833H34.3125C37.0475 3.70833 39.6706 4.69825 41.6045 6.46031C43.5385 8.22237 44.625 10.6122 44.625 13.1042V31.8958ZM38.0625 11.3958C38.0625 11.7337 37.9525 12.064 37.7465 12.3449C37.5405 12.6259 37.2476 12.8448 36.905 12.9741C36.5624 13.1034 36.1854 13.1373 35.8217 13.0713C35.458 13.0054 35.1239 12.8427 34.8617 12.6038C34.5994 12.3649 34.4209 12.0605 34.3485 11.7291C34.2762 11.3977 34.3133 11.0542 34.4552 10.7421C34.5971 10.4299 34.8375 10.1631 35.1458 9.97541C35.4541 9.78769 35.8167 9.6875 36.1875 9.6875C36.6848 9.6875 37.1617 9.86749 37.5133 10.1879C37.865 10.5082 38.0625 10.9428 38.0625 11.3958Z" fill="#755FC7"/>
</svg>
