<svg width="46" height="44" viewBox="0 0 46 44" fill="none" xmlns="http://www.w3.org/2000/svg">
<g clip-path="url(#clip0_110_14)">
<path d="M32.583 4.5C35.1225 4.50725 36.8527 5.28236 38.6485 7C40.4442 8.71764 41.8079 10.4046 41.8155 12.8337V30.5257C41.8079 32.9548 40.7957 34.8081 39 36.5257C37.2043 38.2434 35.1225 39.8521 32.583 39.8594H13.417C10.8775 39.8521 9.09136 38.7176 7.29565 37C5.49994 35.2824 4.64719 33.3337 4.5 31V12.8337C4.50758 10.4046 6.35148 8.71764 8.14719 7C9.9429 5.28236 10.8775 4.50725 13.417 4.5H32.583ZM32.583 0H13.417C6.0375 0 0 5.775 0 12.8337V31.1663C0 38.225 6.0375 44 13.417 44H32.583C39.9625 44 46 38.225 46 31.1663V12.8337C46 5.775 39.9625 0 32.583 0Z" fill="#755FC7"/>
<path d="M34.3214 14.1429C33.7916 14.1429 33.2737 13.9921 32.8332 13.7096C32.3927 13.427 32.0494 13.0254 31.8467 12.5555C31.6439 12.0856 31.5909 11.5686 31.6943 11.0698C31.7976 10.571 32.0527 10.1128 32.4273 9.75316C32.8019 9.39354 33.2792 9.14863 33.7988 9.04941C34.3184 8.95019 34.857 9.00111 35.3464 9.19574C35.8359 9.39037 36.2542 9.71996 36.5486 10.1428C36.8429 10.5657 37 11.0629 37 11.5715C37.0007 11.9094 36.932 12.2441 36.7976 12.5564C36.6633 12.8687 36.466 13.1525 36.2171 13.3914C35.9683 13.6303 35.6727 13.8197 35.3473 13.9487C35.022 14.0776 34.6734 14.1436 34.3214 14.1429ZM22.7144 15.8566C24.1272 15.8566 25.5083 16.2588 26.683 17.0123C27.8577 17.7658 28.7733 18.8368 29.3139 20.0899C29.8546 21.3429 29.9961 22.7218 29.7204 24.052C29.4448 25.3822 28.7645 26.6041 27.7655 27.5632C26.7665 28.5222 25.4937 29.1753 24.108 29.4399C22.7223 29.7045 21.2861 29.5687 19.9808 29.0497C18.6756 28.5307 17.5599 27.6517 16.775 26.524C15.9901 25.3963 15.5712 24.0704 15.5712 22.7142C15.5732 20.896 16.3264 19.1529 17.6656 17.8673C19.0048 16.5817 20.8205 15.8586 22.7144 15.8566ZM22.7144 12.4283C20.5953 12.4283 18.5238 13.0316 16.7618 14.1618C14.9998 15.292 13.6265 16.8984 12.8156 18.7779C12.0046 20.6574 11.7925 22.7256 12.2059 24.7208C12.6193 26.7161 13.6397 28.5488 15.1382 29.9873C16.6366 31.4258 18.5458 32.4055 20.6241 32.8024C22.7025 33.1992 24.8568 32.9955 26.8147 32.217C28.7725 31.4385 30.4458 30.1202 31.6231 28.4287C32.8005 26.7372 33.4288 24.7485 33.4288 22.7142C33.4288 19.9862 32.3 17.3699 30.2907 15.441C28.2813 13.512 25.5561 12.4283 22.7144 12.4283Z" fill="#755FC7"/>
</g>
<defs>
<clipPath id="clip0_110_14">
<rect width="46" height="44" fill="white"/>
</clipPath>
</defs>
</svg>
