<svg width="44" height="41" viewBox="0 0 44 41" fill="none" xmlns="http://www.w3.org/2000/svg">
<path d="M39.9259 0H4.07407C2.99356 0 1.95731 0.399966 1.19327 1.11191C0.429232 1.82385 0 2.78946 0 3.7963V37.2037C0 38.2105 0.429232 39.1761 1.19327 39.8881C1.95731 40.6 2.99356 41 4.07407 41H39.9259C41.0064 41 42.0427 40.6 42.8067 39.8881C43.5708 39.1761 44 38.2105 44 37.2037V3.7963C44 2.78946 43.5708 1.82385 42.8067 1.11191C42.0427 0.399966 41.0064 0 39.9259 0ZM39.1111 36.4444H4.88889V4.55556H39.1111V36.4444ZM18.7407 29.6111V19.7407C18.7412 19.2674 18.8999 18.8059 19.1949 18.4205C19.4898 18.0351 19.9063 17.7448 20.3864 17.5902C20.8665 17.4355 21.3864 17.424 21.8738 17.5573C22.3612 17.6907 22.7919 17.9622 23.1061 18.3342C24.3477 17.7278 25.7362 17.4301 27.1373 17.4699C28.5385 17.5098 29.9049 17.8858 31.1045 18.5616C32.3041 19.2374 33.2963 20.1901 33.9852 21.3277C34.6741 22.4653 35.0364 23.7493 35.037 25.0556V29.6111C35.037 30.2152 34.7795 30.7946 34.3211 31.2217C33.8627 31.6489 33.2409 31.8889 32.5926 31.8889C31.9443 31.8889 31.3225 31.6489 30.8641 31.2217C30.4057 30.7946 30.1481 30.2152 30.1481 29.6111V25.0556C30.1481 24.2501 29.8048 23.4776 29.1935 22.908C28.5823 22.3385 27.7533 22.0185 26.8889 22.0185C26.0245 22.0185 25.1955 22.3385 24.5842 22.908C23.973 23.4776 23.6296 24.2501 23.6296 25.0556V29.6111C23.6296 30.2152 23.3721 30.7946 22.9137 31.2217C22.4552 31.6489 21.8335 31.8889 21.1852 31.8889C20.5369 31.8889 19.9151 31.6489 19.4567 31.2217C18.9983 30.7946 18.7407 30.2152 18.7407 29.6111ZM15.4815 19.7407V29.6111C15.4815 30.2152 15.2239 30.7946 14.7655 31.2217C14.3071 31.6489 13.6853 31.8889 13.037 31.8889C12.3887 31.8889 11.767 31.6489 11.3086 31.2217C10.8501 30.7946 10.5926 30.2152 10.5926 29.6111V19.7407C10.5926 19.1366 10.8501 18.5573 11.3086 18.1301C11.767 17.7029 12.3887 17.463 13.037 17.463C13.6853 17.463 14.3071 17.7029 14.7655 18.1301C15.2239 18.5573 15.4815 19.1366 15.4815 19.7407ZM9.77778 11.3889C9.77778 10.7882 9.96893 10.201 10.3271 9.7016C10.6852 9.20216 11.1942 8.8129 11.7898 8.58303C12.3853 8.35317 13.0407 8.29302 13.6729 8.41021C14.3051 8.52739 14.8859 8.81664 15.3417 9.24138C15.7975 9.66612 16.1079 10.2073 16.2337 10.7964C16.3594 11.3855 16.2949 11.9962 16.0482 12.5511C15.8015 13.1061 15.3838 13.5804 14.8478 13.9141C14.3118 14.2478 13.6817 14.4259 13.037 14.4259C12.1726 14.4259 11.3436 14.106 10.7324 13.5364C10.1212 12.9668 9.77778 12.1944 9.77778 11.3889Z" fill="#755FC7"/>
</svg>
