<svg width="48" height="45" viewBox="0 0 48 45" fill="none" xmlns="http://www.w3.org/2000/svg">
<path d="M16.6667 12.5C16.6667 12.8296 16.5591 13.1519 16.3577 13.426C16.1562 13.7 15.8699 13.9137 15.5349 14.0398C15.1999 14.1659 14.8313 14.199 14.4757 14.1346C14.12 14.0703 13.7934 13.9116 13.537 13.6785C13.2806 13.4454 13.106 13.1485 13.0352 12.8252C12.9645 12.5018 13.0008 12.1667 13.1396 11.8622C13.2783 11.5577 13.5133 11.2974 13.8148 11.1142C14.1163 10.9311 14.4707 10.8333 14.8333 10.8333C15.3196 10.8333 15.7859 11.0089 16.1297 11.3215C16.4735 11.634 16.6667 12.058 16.6667 12.5ZM14.8333 18.3333C14.5902 18.3333 14.3571 18.4211 14.1852 18.5774C14.0132 18.7337 13.9167 18.9457 13.9167 19.1667V32.5C13.9167 32.721 14.0132 32.933 14.1852 33.0893C14.3571 33.2455 14.5902 33.3333 14.8333 33.3333C15.0764 33.3333 15.3096 33.2455 15.4815 33.0893C15.6534 32.933 15.75 32.721 15.75 32.5V19.1667C15.75 18.9457 15.6534 18.7337 15.4815 18.5774C15.3096 18.4211 15.0764 18.3333 14.8333 18.3333ZM28.5833 18.3333C27.5413 18.3324 26.5111 18.5346 25.5623 18.9263C24.6135 19.318 23.7682 19.8902 23.0833 20.6042V19.1667C23.0833 18.9457 22.9868 18.7337 22.8148 18.5774C22.6429 18.4211 22.4098 18.3333 22.1667 18.3333C21.9236 18.3333 21.6904 18.4211 21.5185 18.5774C21.3466 18.7337 21.25 18.9457 21.25 19.1667V32.5C21.25 32.721 21.3466 32.933 21.5185 33.0893C21.6904 33.2455 21.9236 33.3333 22.1667 33.3333C22.4098 33.3333 22.6429 33.2455 22.8148 33.0893C22.9868 32.933 23.0833 32.721 23.0833 32.5V25C23.0833 23.6739 23.6628 22.4021 24.6942 21.4645C25.7257 20.5268 27.1246 20 28.5833 20C30.042 20 31.441 20.5268 32.4724 21.4645C33.5039 22.4021 34.0833 23.6739 34.0833 25V32.5C34.0833 32.721 34.1799 32.933 34.3518 33.0893C34.5237 33.2455 34.7569 33.3333 35 33.3333C35.2431 33.3333 35.4763 33.2455 35.6482 33.0893C35.8201 32.933 35.9167 32.721 35.9167 32.5V25C35.9106 23.2336 35.1361 21.5411 33.7621 20.292C32.3881 19.043 30.5264 18.3388 28.5833 18.3333ZM46 5V40C46 40.663 45.7103 41.2989 45.1945 41.7678C44.6788 42.2366 43.9793 42.5 43.25 42.5H4.75C4.02065 42.5 3.32118 42.2366 2.80546 41.7678C2.28973 41.2989 2 40.663 2 40V5C2 4.33696 2.28973 3.70107 2.80546 3.23223C3.32118 2.76339 4.02065 2.5 4.75 2.5H43.25C43.9793 2.5 44.6788 2.76339 45.1945 3.23223C45.7103 3.70107 46 4.33696 46 5ZM44.1667 5C44.1667 4.77899 44.0701 4.56702 43.8982 4.41074C43.7263 4.25446 43.4931 4.16667 43.25 4.16667H4.75C4.50688 4.16667 4.27373 4.25446 4.10182 4.41074C3.92991 4.56702 3.83333 4.77899 3.83333 5V40C3.83333 40.221 3.92991 40.433 4.10182 40.5893C4.27373 40.7455 4.50688 40.8333 4.75 40.8333H43.25C43.4931 40.8333 43.7263 40.7455 43.8982 40.5893C44.0701 40.433 44.1667 40.221 44.1667 40V5Z" fill="#755FC7"/>
</svg>
