<svg width="48" height="48" viewBox="0 0 48 48" fill="none" xmlns="http://www.w3.org/2000/svg">
<path d="M44.3258 44.158C45.4901 45.2129 47.2871 43.5847 46.1229 42.5528L36.6313 33.9305C39.9608 30.5928 41.8012 26.2525 41.7947 21.7537C41.7947 11.6866 32.7588 3.5 21.6474 3.5C10.5359 3.5 1.5 11.6866 1.5 21.7537C1.5 31.8207 10.5359 40.0074 21.6474 40.0074C26.6589 40.0074 31.2908 38.3334 34.8343 35.5586L44.3258 44.158ZM4.02854 21.7537C4.02854 12.9479 11.9508 5.79318 21.6448 5.79318C31.3642 5.79318 39.2611 12.9479 39.2611 21.7537C39.2611 30.5595 31.3642 37.7142 21.6448 37.7142C11.9508 37.7142 4.02854 30.5595 4.02854 21.7537Z" fill="#755FC7"/>
</svg>
