<svg width="48" height="45" viewBox="0 0 48 45" fill="none" xmlns="http://www.w3.org/2000/svg">
<g clip-path="url(#clip0_110_17)">
<path d="M47.2643 40.4831L36.383 30.2818C39.0027 27.0122 40.4169 23.0325 40.4122 18.9432C40.4122 8.49799 31.3476 0 20.2061 0C9.06452 0 0 8.49799 0 18.9432C0 29.3884 9.06452 37.8864 20.2061 37.8864C24.568 37.8909 28.813 36.565 32.3006 34.109L43.1819 44.3103C43.7327 44.7719 44.4512 45.0183 45.1897 44.9989C45.9282 44.9796 46.6308 44.6959 47.1532 44.2061C47.6756 43.7163 47.9782 43.0577 47.9989 42.3653C48.0195 41.673 47.7567 40.9995 47.2643 40.4831ZM5.77317 18.9432C5.77317 16.267 6.61964 13.651 8.20555 11.4259C9.79146 9.20072 12.0456 7.46644 14.6828 6.44232C17.3201 5.4182 20.2221 5.15024 23.0218 5.67233C25.8215 6.19443 28.3932 7.48311 30.4117 9.37544C32.4302 11.2678 33.8048 13.6787 34.3617 16.3035C34.9186 18.9282 34.6327 21.6488 33.5404 24.1212C32.448 26.5937 30.5981 28.7069 28.2246 30.1937C25.8511 31.6805 23.0606 32.4741 20.2061 32.4741C16.3796 32.4697 12.7112 31.0428 10.0055 28.5062C7.29984 25.9696 5.77776 22.5305 5.77317 18.9432Z" fill="#755FC7"/>
</g>
<defs>
<clipPath id="clip0_110_17">
<rect width="48" height="45" fill="white"/>
</clipPath>
</defs>
</svg>
